<?xml version="1.0" standalone="no"?><!DOCTYPE svg PUBLIC "-//W3C//DTD SVG 1.1//EN" "http://www.w3.org/Graphics/SVG/1.1/DTD/svg11.dtd"><svg t="1603350965173" class="icon" viewBox="0 0 1024 1024" version="1.1" xmlns="http://www.w3.org/2000/svg" p-id="7531" xmlns:xlink="http://www.w3.org/1999/xlink" width="200" height="200"><defs><style type="text/css"></style></defs><path d="M768.512 415.744c0-141.312-114.688-256-256-256s-256 114.688-256 256c-105.984 0-192 86.016-192 192s86.016 192 192 192v64c-141.312 0-256-114.176-256.512-255.488 0-118.784 81.92-222.208 197.632-249.344 31.744-174.08 198.656-289.28 372.736-257.024 130.56 24.064 232.96 126.464 257.024 257.024 137.728 32.768 222.208 171.008 189.44 308.736-27.648 115.2-130.048 196.096-248.32 196.608v-64c105.984 0 192-86.016 192-192s-86.016-192.512-192-192.512z m-512 384h64v64H256.512v-64z m448 0h64v64h-64v-64z" p-id="7532" fill="#8a8a8a"></path><path d="M539.136 845.312v-332.8c0-17.408-14.336-31.744-31.744-32.256-17.408 0-31.744 14.848-31.744 32.256v333.312l-36.352-36.352c-12.8-12.288-32.768-12.288-45.056 0-12.288 12.288-12.8 32.256-0.512 44.544l0.512 0.512 91.136 91.136c6.144 6.144 14.336 9.216 22.528 9.216 8.192 0 16.384-3.072 22.528-9.216l91.136-91.136c12.288-12.8 12.288-32.768 0-45.056-12.288-12.288-32.256-12.8-44.544-0.512l-0.512 0.512-37.376 35.84z" p-id="7533" fill="#8a8a8a"></path></svg>